<?xml version="1.0" encoding="UTF-8" standalone="no"?>
<!DOCTYPE svg PUBLIC "-//W3C//DTD SVG 1.1//EN"
 "http://www.w3.org/Graphics/SVG/1.1/DTD/svg11.dtd">
<!-- Generated by graphviz version 2.40.1 (20161225.0304)
 -->
<!-- Title: %3 Pages: 1 -->
<svg width="985pt" height="680pt"
 viewBox="0.00 0.00 985.00 680.50" xmlns="http://www.w3.org/2000/svg" xmlns:xlink="http://www.w3.org/1999/xlink">
<g id="graph0" class="graph" transform="scale(1 1) rotate(0) translate(4 676.498)">
<title>%3</title>
<polygon fill="#ffffff" stroke="transparent" points="-4,4 -4,-676.498 980.995,-676.498 980.995,4 -4,4"/>
<!-- 0 -->
<g id="node1" class="node">
<title>0</title>
<ellipse fill="none" stroke="#000000" cx="558.495" cy="-613.998" rx="14" ry="14"/>
<text text-anchor="middle" x="558.495" y="-612.098" font-family="Times,serif" font-size="8.00" fill="#000000">0</text>
</g>
<!-- (2, 1) -->
<g id="node2" class="node">
<title>(2, 1)</title>
<ellipse fill="#9aff9a" stroke="#00ff00" cx="738.495" cy="-133.998" rx="18.5" ry="18.5"/>
<text text-anchor="middle" x="738.495" y="-132.098" font-family="Times,serif" font-size="8.00" fill="#000000">2,1</text>
</g>
<!-- 0&#45;&gt;(2, 1) -->
<g id="edge1" class="edge">
<title>0&#45;&gt;(2, 1)</title>
<path fill="none" stroke="#cd8500" d="M563.505,-600.658C587.945,-535.488 694.955,-250.108 728.445,-160.808"/>
<polygon fill="#cd8500" stroke="#cd8500" points="731.7472,-161.9702 731.985,-151.378 725.1937,-159.51 731.7472,-161.9702"/>
<text text-anchor="middle" x="643.975" y="-383.338" font-family="Times,serif" font-size="8.00" fill="#cd8500">4</text>
</g>
<!-- (1, 1) -->
<g id="node3" class="node">
<title>(1, 1)</title>
<ellipse fill="#9aff9a" stroke="#00ff00" cx="378.495" cy="-613.998" rx="18.5" ry="18.5"/>
<text text-anchor="middle" x="378.495" y="-612.098" font-family="Times,serif" font-size="8.00" fill="#000000">1,1</text>
</g>
<!-- 0&#45;&gt;(1, 1) -->
<g id="edge2" class="edge">
<title>0&#45;&gt;(1, 1)</title>
<path fill="none" stroke="#0000ff" d="M544.075,-613.998C514.415,-613.998 446.095,-613.998 407.115,-613.998"/>
<polygon fill="#0000ff" stroke="#0000ff" points="406.955,-610.4981 396.955,-613.998 406.955,-617.4981 406.955,-610.4981"/>
<text text-anchor="middle" x="473.595" y="-616.598" font-family="Times,serif" font-size="8.00" fill="#0000ff">2</text>
</g>
<!-- (6, 1) -->
<g id="node4" class="node">
<title>(6, 1)</title>
<ellipse fill="#9aff9a" stroke="#00ff00" cx="278.495" cy="-413.998" rx="18.5" ry="18.5"/>
<text text-anchor="middle" x="278.495" y="-412.098" font-family="Times,serif" font-size="8.00" fill="#000000">6,1</text>
</g>
<!-- 0&#45;&gt;(6, 1) -->
<g id="edge3" class="edge">
<title>0&#45;&gt;(6, 1)</title>
<path fill="none" stroke="#00ff00" d="M546.825,-605.658C504.575,-575.488 359.165,-471.618 301.915,-430.728"/>
<polygon fill="#00ff00" stroke="#00ff00" points="303.6867,-427.6923 293.515,-424.728 299.618,-433.3885 303.6867,-427.6923"/>
<text text-anchor="middle" x="422.375" y="-520.798" font-family="Times,serif" font-size="8.00" fill="#00ff00">3</text>
</g>
<!-- (1, 2) -->
<g id="node5" class="node">
<title>(1, 2)</title>
<ellipse fill="#9aff9a" stroke="#00ff00" cx="958.495" cy="-613.998" rx="18.5" ry="18.5"/>
<text text-anchor="middle" x="958.495" y="-612.098" font-family="Times,serif" font-size="8.00" fill="#000000">1,2</text>
</g>
<!-- 0&#45;&gt;(1, 2) -->
<g id="edge4" class="edge">
<title>0&#45;&gt;(1, 2)</title>
<path fill="none" stroke="#ff0000" d="M572.735,-613.998C630.825,-613.998 850.555,-613.998 929.785,-613.998"/>
<polygon fill="#ff0000" stroke="#ff0000" points="930.005,-617.4981 940.005,-613.998 930.005,-610.4981 930.005,-617.4981"/>
<text text-anchor="middle" x="749.265" y="-616.598" font-family="Times,serif" font-size="8.00" fill="#ff0000">1</text>
</g>
<!-- (9, 2) -->
<g id="node6" class="node">
<title>(9, 2)</title>
<ellipse fill="#fa8072" stroke="#ff0000" cx="878.495" cy="-213.998" rx="18.5" ry="18.5"/>
<text text-anchor="middle" x="878.495" y="-212.098" font-family="Times,serif" font-size="8.00" fill="#000000">9,2</text>
</g>
<!-- (2, 1)&#45;&gt;(9, 2) -->
<g id="edge5" class="edge">
<title>(2, 1)&#45;&gt;(9, 2)</title>
<path fill="none" stroke="#cd8500" d="M754.555,-143.178C778.695,-156.968 824.535,-183.158 853.195,-199.538"/>
<polygon fill="#cd8500" stroke="#cd8500" points="851.7772,-202.7592 862.195,-204.688 855.2538,-196.6836 851.7772,-202.7592"/>
<text text-anchor="middle" x="801.875" y="-173.958" font-family="Times,serif" font-size="8.00" fill="#cd8500">4</text>
</g>
<!-- (8, 1) -->
<g id="node7" class="node">
<title>(8, 1)</title>
<ellipse fill="#fa8072" stroke="#ff0000" cx="18.5" cy="-513.998" rx="18.5" ry="18.5"/>
<text text-anchor="middle" x="18.5" y="-512.098" font-family="Times,serif" font-size="8.00" fill="#000000">8,1</text>
</g>
<!-- (1, 1)&#45;&gt;(8, 1) -->
<g id="edge6" class="edge">
<title>(1, 1)&#45;&gt;(8, 1)</title>
<path fill="none" stroke="#0000ff" d="M360.645,-609.038C302.345,-592.848 117.255,-541.428 46.431,-521.758"/>
<polygon fill="#0000ff" stroke="#0000ff" points="47.032,-518.2925 36.46,-518.988 45.1582,-525.037 47.032,-518.2925"/>
<text text-anchor="middle" x="201.535" y="-567.998" font-family="Times,serif" font-size="8.00" fill="#0000ff">2</text>
</g>
<!-- (11, 1) -->
<g id="node8" class="node">
<title>(11, 1)</title>
<ellipse fill="#fa8072" stroke="#ff0000" cx="498.495" cy="-433.998" rx="21" ry="21"/>
<text text-anchor="middle" x="498.495" y="-432.098" font-family="Times,serif" font-size="8.00" fill="#000000">11,1</text>
</g>
<!-- (6, 1)&#45;&gt;(11, 1) -->
<g id="edge7" class="edge">
<title>(6, 1)&#45;&gt;(11, 1)</title>
<path fill="none" stroke="#00ff00" d="M296.875,-415.668C334.435,-419.088 420.365,-426.898 466.995,-431.138"/>
<polygon fill="#00ff00" stroke="#00ff00" points="466.8596,-434.64 477.135,-432.058 467.4922,-427.6686 466.8596,-434.64"/>
<text text-anchor="middle" x="379.935" y="-426.008" font-family="Times,serif" font-size="8.00" fill="#00ff00">3</text>
</g>
<!-- (9, 1) -->
<g id="node9" class="node">
<title>(9, 1)</title>
<ellipse fill="#fa8072" stroke="#ff0000" cx="338.495" cy="-213.998" rx="18.5" ry="18.5"/>
<text text-anchor="middle" x="338.495" y="-212.098" font-family="Times,serif" font-size="8.00" fill="#000000">9,1</text>
</g>
<!-- (1, 2)&#45;&gt;(9, 1) -->
<g id="edge8" class="edge">
<title>(1, 2)&#45;&gt;(9, 1)</title>
<path fill="none" stroke="#ff0000" d="M942.865,-603.908C859.275,-549.978 465.105,-295.678 362.805,-229.678"/>
<polygon fill="#ff0000" stroke="#ff0000" points="364.3953,-226.5388 354.095,-224.058 360.6001,-232.4207 364.3953,-226.5388"/>
<text text-anchor="middle" x="650.835" y="-419.398" font-family="Times,serif" font-size="8.00" fill="#ff0000">1</text>
</g>
<!-- 1 -->
<g id="node10" class="node">
<title>1</title>
<ellipse fill="none" stroke="#000000" cx="138.495" cy="-14" rx="14" ry="14"/>
<text text-anchor="middle" x="138.495" y="-12.1" font-family="Times,serif" font-size="8.00" fill="#000000">1</text>
</g>
<!-- (9, 2)&#45;&gt;1 -->
<g id="edge9" class="edge">
<title>(9, 2)&#45;&gt;1</title>
<path fill="none" stroke="#cd8500" d="M860.575,-209.158C760.825,-182.198 274.605,-50.785 161.875,-20.317"/>
<polygon fill="#cd8500" stroke="#cd8500" points="162.7218,-16.9204 152.155,-17.691 160.896,-23.6781 162.7218,-16.9204"/>
<text text-anchor="middle" x="509.225" y="-117.338" font-family="Times,serif" font-size="8.00" fill="#cd8500">4</text>
</g>
<!-- (4, 1) -->
<g id="node11" class="node">
<title>(4, 1)</title>
<ellipse fill="#9aff9a" stroke="#00ff00" cx="58.5" cy="-653.998" rx="18.5" ry="18.5"/>
<text text-anchor="middle" x="58.5" y="-652.098" font-family="Times,serif" font-size="8.00" fill="#000000">4,1</text>
</g>
<!-- (8, 1)&#45;&gt;(4, 1) -->
<g id="edge10" class="edge">
<title>(8, 1)&#45;&gt;(4, 1)</title>
<path fill="none" stroke="#0000ff" d="M23.566,-531.728C30.381,-555.588 42.571,-598.248 50.598,-626.338"/>
<polygon fill="#0000ff" stroke="#0000ff" points="47.2367,-627.3141 53.349,-635.968 53.9675,-625.3912 47.2367,-627.3141"/>
<text text-anchor="middle" x="35.082" y="-581.638" font-family="Times,serif" font-size="8.00" fill="#0000ff">2</text>
</g>
<!-- (6, 2) -->
<g id="node12" class="node">
<title>(6, 2)</title>
<ellipse fill="#9aff9a" stroke="#00ff00" cx="758.495" cy="-413.998" rx="18.5" ry="18.5"/>
<text text-anchor="middle" x="758.495" y="-412.098" font-family="Times,serif" font-size="8.00" fill="#000000">6,2</text>
</g>
<!-- (11, 1)&#45;&gt;(6, 2) -->
<g id="edge11" class="edge">
<title>(11, 1)&#45;&gt;(6, 2)</title>
<path fill="none" stroke="#00ff00" d="M519.775,-432.368C566.415,-428.778 677.635,-420.218 730.145,-416.178"/>
<polygon fill="#00ff00" stroke="#00ff00" points="730.41,-419.668 740.115,-415.418 729.8779,-412.6883 730.41,-419.668"/>
<text text-anchor="middle" x="622.955" y="-426.868" font-family="Times,serif" font-size="8.00" fill="#00ff00">3</text>
</g>
<!-- (9, 1)&#45;&gt;1 -->
<g id="edge12" class="edge">
<title>(9, 1)&#45;&gt;1</title>
<path fill="none" stroke="#ff0000" d="M325.375,-200.878C290.505,-166.008 195.515,-71.017 156.055,-31.554"/>
<polygon fill="#ff0000" stroke="#ff0000" points="158.4816,-29.0309 148.935,-24.436 153.5326,-33.9813 158.4816,-29.0309"/>
<text text-anchor="middle" x="238.715" y="-118.818" font-family="Times,serif" font-size="8.00" fill="#ff0000">1</text>
</g>
<!-- (8, 2) -->
<g id="node13" class="node">
<title>(8, 2)</title>
<ellipse fill="#fa8072" stroke="#ff0000" cx="238.495" cy="-513.998" rx="18.5" ry="18.5"/>
<text text-anchor="middle" x="238.495" y="-512.098" font-family="Times,serif" font-size="8.00" fill="#000000">8,2</text>
</g>
<!-- (4, 1)&#45;&gt;(8, 2) -->
<g id="edge13" class="edge">
<title>(4, 1)&#45;&gt;(8, 2)</title>
<path fill="none" stroke="#0000ff" d="M73.23,-642.548C104.555,-618.178 177.985,-561.068 215.525,-531.868"/>
<polygon fill="#0000ff" stroke="#0000ff" points="218.0717,-534.3211 223.815,-525.418 213.7732,-528.7964 218.0717,-534.3211"/>
<text text-anchor="middle" x="142.375" y="-589.808" font-family="Times,serif" font-size="8.00" fill="#0000ff">2</text>
</g>
<!-- (7, 1) -->
<g id="node14" class="node">
<title>(7, 1)</title>
<ellipse fill="#fa8072" stroke="#ff0000" cx="58.5" cy="-153.998" rx="18.5" ry="18.5"/>
<text text-anchor="middle" x="58.5" y="-152.098" font-family="Times,serif" font-size="8.00" fill="#000000">7,1</text>
</g>
<!-- (6, 2)&#45;&gt;(7, 1) -->
<g id="edge15" class="edge">
<title>(6, 2)&#45;&gt;(7, 1)</title>
<path fill="none" stroke="#00ff00" d="M741.195,-407.578C647.395,-372.728 199.855,-206.508 85.271,-163.948"/>
<polygon fill="#00ff00" stroke="#00ff00" points="86.4179,-160.6404 75.825,-160.438 83.9796,-167.202 86.4179,-160.6404"/>
<text text-anchor="middle" x="411.235" y="-288.358" font-family="Times,serif" font-size="8.00" fill="#00ff00">3</text>
</g>
<!-- (8, 2)&#45;&gt;1 -->
<g id="edge14" class="edge">
<title>(8, 2)&#45;&gt;1</title>
<path fill="none" stroke="#0000ff" d="M234.885,-495.908C219.635,-419.688 160.625,-124.628 143.305,-38.026"/>
<polygon fill="#0000ff" stroke="#0000ff" points="146.7111,-37.2097 141.315,-28.092 139.8475,-38.5847 146.7111,-37.2097"/>
<text text-anchor="middle" x="187.095" y="-269.568" font-family="Times,serif" font-size="8.00" fill="#0000ff">2</text>
</g>
<!-- (7, 1)&#45;&gt;1 -->
<g id="edge16" class="edge">
<title>(7, 1)&#45;&gt;1</title>
<path fill="none" stroke="#00ff00" d="M67.677,-137.938C82.131,-112.648 110.215,-63.506 126.335,-35.294"/>
<polygon fill="#00ff00" stroke="#00ff00" points="129.3837,-37.0132 131.305,-26.594 123.3056,-33.5409 129.3837,-37.0132"/>
<text text-anchor="middle" x="95.004" y="-89.217" font-family="Times,serif" font-size="8.00" fill="#00ff00">3</text>
</g>
</g>
</svg>
