<?xml version="1.0" encoding="UTF-8" standalone="no"?>
<!DOCTYPE svg PUBLIC "-//W3C//DTD SVG 1.1//EN"
 "http://www.w3.org/Graphics/SVG/1.1/DTD/svg11.dtd">
<!-- Generated by graphviz version 2.40.1 (20161225.0304)
 -->
<!-- Title: %3 Pages: 1 -->
<svg width="9315pt" height="587pt"
 viewBox="0.00 0.00 9315.01 587.50" xmlns="http://www.w3.org/2000/svg" xmlns:xlink="http://www.w3.org/1999/xlink">
<g id="graph0" class="graph" transform="scale(1 1) rotate(0) translate(4 583.497)">
<title>%3</title>
<polygon fill="#ffffff" stroke="transparent" points="-4,4 -4,-583.497 9311.015,-583.497 9311.015,4 -4,4"/>
<!-- 0 -->
<g id="node1" class="node">
<title>0</title>
<ellipse fill="none" stroke="#000000" cx="228.495" cy="-81" rx="14" ry="14"/>
<text text-anchor="middle" x="228.495" y="-79.1" font-family="Times,serif" font-size="8.00" fill="#000000">0</text>
</g>
<!-- (3, 3) -->
<g id="node2" class="node">
<title>(3, 3)</title>
<ellipse fill="#9aff9a" stroke="#00ff00" cx="2988.515" cy="-200.997" rx="18.5" ry="18.5"/>
<text text-anchor="middle" x="2988.515" y="-199.097" font-family="Times,serif" font-size="8.00" fill="#000000">3,3</text>
</g>
<!-- 0&#45;&gt;(3, 3) -->
<g id="edge1" class="edge">
<title>0&#45;&gt;(3, 3)</title>
<path fill="none" stroke="#0000ff" d="M242.695,-81.617C442.065,-90.286 2679.415,-187.567 2959.715,-199.747"/>
<polygon fill="#0000ff" stroke="#0000ff" points="2959.7734,-203.2527 2969.915,-200.187 2960.0752,-196.2592 2959.7734,-203.2527"/>
<text text-anchor="middle" x="1599.215" y="-143.287" font-family="Times,serif" font-size="8.00" fill="#0000ff">2</text>
</g>
<!-- (3, 5) -->
<g id="node3" class="node">
<title>(3, 5)</title>
<ellipse fill="#9aff9a" stroke="#00ff00" cx="5508.515" cy="-200.997" rx="18.5" ry="18.5"/>
<text text-anchor="middle" x="5508.515" y="-199.097" font-family="Times,serif" font-size="8.00" fill="#000000">3,5</text>
</g>
<!-- 0&#45;&gt;(3, 5) -->
<g id="edge2" class="edge">
<title>0&#45;&gt;(3, 5)</title>
<path fill="none" stroke="#ff0000" d="M242.725,-81.323C529.945,-87.851 5075.015,-191.147 5479.715,-200.347"/>
<polygon fill="#ff0000" stroke="#ff0000" points="5479.9393,-203.8528 5490.015,-200.577 5480.0957,-196.8545 5479.9393,-203.8528"/>
<text text-anchor="middle" x="2859.215" y="-143.437" font-family="Times,serif" font-size="8.00" fill="#ff0000">1</text>
</g>
<!-- (3, 7) -->
<g id="node4" class="node">
<title>(3, 7)</title>
<ellipse fill="#9aff9a" stroke="#00ff00" cx="8028.515" cy="-200.997" rx="18.5" ry="18.5"/>
<text text-anchor="middle" x="8028.515" y="-199.097" font-family="Times,serif" font-size="8.00" fill="#000000">3,7</text>
</g>
<!-- 0&#45;&gt;(3, 7) -->
<g id="edge3" class="edge">
<title>0&#45;&gt;(3, 7)</title>
<path fill="none" stroke="#00ff00" d="M242.765,-81.22C598.695,-86.695 7497.915,-192.837 7999.715,-200.557"/>
<polygon fill="#00ff00" stroke="#00ff00" points="8000.0623,-204.0627 8010.115,-200.717 8000.1701,-197.0635 8000.0623,-204.0627"/>
<text text-anchor="middle" x="4119.215" y="-143.487" font-family="Times,serif" font-size="8.00" fill="#00ff00">3</text>
</g>
<!-- (3, 2) -->
<g id="node5" class="node">
<title>(3, 2)</title>
<ellipse fill="#9aff9a" stroke="#00ff00" cx="1728.515" cy="-200.997" rx="18.5" ry="18.5"/>
<text text-anchor="middle" x="1728.515" y="-199.097" font-family="Times,serif" font-size="8.00" fill="#000000">3,2</text>
</g>
<!-- 0&#45;&gt;(3, 2) -->
<g id="edge4" class="edge">
<title>0&#45;&gt;(3, 2)</title>
<path fill="none" stroke="#cd8500" d="M242.865,-82.149C383.005,-93.361 1505.515,-183.157 1699.915,-198.707"/>
<polygon fill="#cd8500" stroke="#cd8500" points="1699.8667,-202.2143 1710.115,-199.527 1700.4277,-195.2368 1699.8667,-202.2143"/>
<text text-anchor="middle" x="969.365" y="-143.027" font-family="Times,serif" font-size="8.00" fill="#cd8500">4</text>
</g>
<!-- (14, 4) -->
<g id="node6" class="node">
<title>(14, 4)</title>
<ellipse fill="#fa8072" stroke="#ff0000" cx="4008.515" cy="-21" rx="21" ry="21"/>
<text text-anchor="middle" x="4008.515" y="-19.1" font-family="Times,serif" font-size="8.00" fill="#000000">14,4</text>
</g>
<!-- (3, 3)&#45;&gt;(14, 4) -->
<g id="edge5" class="edge">
<title>(3, 3)&#45;&gt;(14, 4)</title>
<path fill="none" stroke="#0000ff" d="M3006.615,-197.797C3128.015,-176.387 3822.115,-53.9 3977.615,-26.456"/>
<polygon fill="#0000ff" stroke="#0000ff" points="3978.1804,-29.9104 3987.415,-24.717 3976.9573,-23.0181 3978.1804,-29.9104"/>
<text text-anchor="middle" x="3490.115" y="-114.727" font-family="Times,serif" font-size="8.00" fill="#0000ff">2</text>
</g>
<!-- (20, 5) -->
<g id="node7" class="node">
<title>(20, 5)</title>
<ellipse fill="#fa8072" stroke="#ff0000" cx="4458.515" cy="-260.997" rx="21" ry="21"/>
<text text-anchor="middle" x="4458.515" y="-259.097" font-family="Times,serif" font-size="8.00" fill="#000000">20,5</text>
</g>
<!-- (3, 5)&#45;&gt;(20, 5) -->
<g id="edge6" class="edge">
<title>(3, 5)&#45;&gt;(20, 5)</title>
<path fill="none" stroke="#ff0000" d="M5489.815,-202.067C5364.715,-209.217 4648.915,-250.117 4489.815,-259.207"/>
<polygon fill="#ff0000" stroke="#ff0000" points="4489.4979,-255.7194 4479.715,-259.787 4489.8992,-262.7078 4489.4979,-255.7194"/>
<text text-anchor="middle" x="4987.815" y="-233.237" font-family="Times,serif" font-size="8.00" fill="#ff0000">1</text>
</g>
<!-- (14, 3) -->
<g id="node8" class="node">
<title>(14, 3)</title>
<ellipse fill="#fa8072" stroke="#ff0000" cx="2808.515" cy="-21" rx="21" ry="21"/>
<text text-anchor="middle" x="2808.515" y="-19.1" font-family="Times,serif" font-size="8.00" fill="#000000">14,3</text>
</g>
<!-- (3, 7)&#45;&gt;(14, 3) -->
<g id="edge7" class="edge">
<title>(3, 7)&#45;&gt;(14, 3)</title>
<path fill="none" stroke="#00ff00" d="M8010.115,-200.367C7688.815,-189.287 3258.215,-36.508 2840.115,-22.09"/>
<polygon fill="#00ff00" stroke="#00ff00" points="2840.0292,-18.5851 2829.915,-21.74 2839.7891,-25.581 2840.0292,-18.5851"/>
<text text-anchor="middle" x="5423.115" y="-113.827" font-family="Times,serif" font-size="8.00" fill="#00ff00">3</text>
</g>
<!-- (14, 1) -->
<g id="node9" class="node">
<title>(14, 1)</title>
<ellipse fill="#fa8072" stroke="#ff0000" cx="408.495" cy="-21" rx="21" ry="21"/>
<text text-anchor="middle" x="408.495" y="-19.1" font-family="Times,serif" font-size="8.00" fill="#000000">14,1</text>
</g>
<!-- (3, 2)&#45;&gt;(14, 1) -->
<g id="edge8" class="edge">
<title>(3, 2)&#45;&gt;(14, 1)</title>
<path fill="none" stroke="#cd8500" d="M1709.815,-198.457C1565.315,-178.747 624.795,-50.495 439.985,-25.294"/>
<polygon fill="#cd8500" stroke="#cd8500" points="440.2362,-21.7959 429.855,-23.913 439.2905,-28.7318 440.2362,-21.7959"/>
<text text-anchor="middle" x="1072.915" y="-114.477" font-family="Times,serif" font-size="8.00" fill="#cd8500">4</text>
</g>
<!-- (3, 4) -->
<g id="node10" class="node">
<title>(3, 4)</title>
<ellipse fill="#9aff9a" stroke="#00ff00" cx="4248.515" cy="-200.997" rx="18.5" ry="18.5"/>
<text text-anchor="middle" x="4248.515" y="-199.097" font-family="Times,serif" font-size="8.00" fill="#000000">3,4</text>
</g>
<!-- (14, 4)&#45;&gt;(3, 4) -->
<g id="edge9" class="edge">
<title>(14, 4)&#45;&gt;(3, 4)</title>
<path fill="none" stroke="#0000ff" d="M4025.715,-33.945C4068.115,-65.742 4177.415,-147.697 4225.415,-183.657"/>
<polygon fill="#0000ff" stroke="#0000ff" points="4223.515,-186.607 4233.615,-189.807 4227.715,-181.007 4223.515,-186.607"/>
<text text-anchor="middle" x="4123.615" y="-111.397" font-family="Times,serif" font-size="8.00" fill="#0000ff">2</text>
</g>
<!-- (8, 1) -->
<g id="node11" class="node">
<title>(8, 1)</title>
<ellipse fill="#9aff9a" stroke="#00ff00" cx="138.495" cy="-560.997" rx="18.5" ry="18.5"/>
<text text-anchor="middle" x="138.495" y="-559.097" font-family="Times,serif" font-size="8.00" fill="#000000">8,1</text>
</g>
<!-- (20, 5)&#45;&gt;(8, 1) -->
<g id="edge10" class="edge">
<title>(20, 5)&#45;&gt;(8, 1)</title>
<path fill="none" stroke="#ff0000" d="M4437.315,-262.477C4127.615,-283.977 525.785,-534.107 167.215,-559.007"/>
<polygon fill="#ff0000" stroke="#ff0000" points="166.849,-555.5239 157.115,-559.707 167.3331,-562.5071 166.849,-555.5239"/>
<text text-anchor="middle" x="2300.215" y="-413.337" font-family="Times,serif" font-size="8.00" fill="#ff0000">1</text>
</g>
<!-- (3, 1) -->
<g id="node12" class="node">
<title>(3, 1)</title>
<ellipse fill="#9aff9a" stroke="#00ff00" cx="468.495" cy="-200.997" rx="18.5" ry="18.5"/>
<text text-anchor="middle" x="468.495" y="-199.097" font-family="Times,serif" font-size="8.00" fill="#000000">3,1</text>
</g>
<!-- (14, 3)&#45;&gt;(3, 1) -->
<g id="edge11" class="edge">
<title>(14, 3)&#45;&gt;(3, 1)</title>
<path fill="none" stroke="#00ff00" d="M2787.215,-22.639C2569.215,-39.405 747.425,-179.547 496.995,-198.807"/>
<polygon fill="#00ff00" stroke="#00ff00" points="496.5764,-195.3288 486.875,-199.587 497.1144,-202.3081 496.5764,-195.3288"/>
<text text-anchor="middle" x="1640.115" y="-113.327" font-family="Times,serif" font-size="8.00" fill="#00ff00">3</text>
</g>
<!-- (3, 6) -->
<g id="node13" class="node">
<title>(3, 6)</title>
<ellipse fill="#9aff9a" stroke="#00ff00" cx="6768.515" cy="-200.997" rx="18.5" ry="18.5"/>
<text text-anchor="middle" x="6768.515" y="-199.097" font-family="Times,serif" font-size="8.00" fill="#000000">3,6</text>
</g>
<!-- (14, 1)&#45;&gt;(3, 6) -->
<g id="edge12" class="edge">
<title>(14, 1)&#45;&gt;(3, 6)</title>
<path fill="none" stroke="#cd8500" d="M429.975,-21.608C816.515,-32.548 6296.715,-187.647 6740.015,-200.197"/>
<polygon fill="#cd8500" stroke="#cd8500" points="6740.0218,-203.6984 6750.115,-200.477 6740.2159,-196.7011 6740.0218,-203.6984"/>
<text text-anchor="middle" x="3583.015" y="-113.497" font-family="Times,serif" font-size="8.00" fill="#cd8500">4</text>
</g>
<!-- (20, 3) -->
<g id="node16" class="node">
<title>(20, 3)</title>
<ellipse fill="#fa8072" stroke="#ff0000" cx="2358.515" cy="-260.997" rx="21" ry="21"/>
<text text-anchor="middle" x="2358.515" y="-259.097" font-family="Times,serif" font-size="8.00" fill="#000000">20,3</text>
</g>
<!-- (3, 4)&#45;&gt;(20, 3) -->
<g id="edge14" class="edge">
<title>(3, 4)&#45;&gt;(20, 3)</title>
<path fill="none" stroke="#0000ff" d="M4230.115,-201.587C4051.015,-207.267 2620.415,-252.687 2389.815,-260.007"/>
<polygon fill="#0000ff" stroke="#0000ff" points="2389.5991,-256.512 2379.715,-260.327 2389.8209,-263.5085 2389.5991,-256.512"/>
<text text-anchor="middle" x="3307.915" y="-233.397" font-family="Times,serif" font-size="8.00" fill="#0000ff">2</text>
</g>
<!-- (20, 1) -->
<g id="node37" class="node">
<title>(20, 1)</title>
<ellipse fill="#fa8072" stroke="#ff0000" cx="258.495" cy="-260.997" rx="21" ry="21"/>
<text text-anchor="middle" x="258.495" y="-259.097" font-family="Times,serif" font-size="8.00" fill="#000000">20,1</text>
</g>
<!-- (8, 1)&#45;&gt;(20, 1) -->
<g id="edge34" class="edge">
<title>(8, 1)&#45;&gt;(20, 1)</title>
<path fill="none" stroke="#ff0000" d="M145.475,-543.577C165.275,-494.057 222.045,-352.127 246.765,-290.337"/>
<polygon fill="#ff0000" stroke="#ff0000" points="250.1207,-291.3717 250.585,-280.787 243.6214,-288.7719 250.1207,-291.3717"/>
<text text-anchor="middle" x="194.115" y="-419.557" font-family="Times,serif" font-size="8.00" fill="#ff0000">1</text>
</g>
<!-- (14, 2) -->
<g id="node23" class="node">
<title>(14, 2)</title>
<ellipse fill="#fa8072" stroke="#ff0000" cx="1608.515" cy="-21" rx="21" ry="21"/>
<text text-anchor="middle" x="1608.515" y="-19.1" font-family="Times,serif" font-size="8.00" fill="#000000">14,2</text>
</g>
<!-- (3, 1)&#45;&gt;(14, 2) -->
<g id="edge21" class="edge">
<title>(3, 1)&#45;&gt;(14, 2)</title>
<path fill="none" stroke="#00ff00" d="M486.865,-198.097C617.805,-177.427 1409.215,-52.459 1577.215,-25.943"/>
<polygon fill="#00ff00" stroke="#00ff00" points="1577.7857,-29.3963 1587.115,-24.375 1576.6906,-22.4825 1577.7857,-29.3963"/>
<text text-anchor="middle" x="1030.015" y="-114.617" font-family="Times,serif" font-size="8.00" fill="#00ff00">3</text>
</g>
<!-- (20, 2) -->
<g id="node42" class="node">
<title>(20, 2)</title>
<ellipse fill="#fa8072" stroke="#ff0000" cx="1308.515" cy="-260.997" rx="21" ry="21"/>
<text text-anchor="middle" x="1308.515" y="-259.097" font-family="Times,serif" font-size="8.00" fill="#000000">20,2</text>
</g>
<!-- (3, 6)&#45;&gt;(20, 2) -->
<g id="edge40" class="edge">
<title>(3, 6)&#45;&gt;(20, 2)</title>
<path fill="none" stroke="#cd8500" d="M6750.015,-201.207C6420.115,-204.827 1767.915,-255.957 1340.015,-260.657"/>
<polygon fill="#cd8500" stroke="#cd8500" points="1339.7766,-257.1593 1329.815,-260.767 1339.8522,-264.1589 1339.7766,-257.1593"/>
<text text-anchor="middle" x="4043.015" y="-233.527" font-family="Times,serif" font-size="8.00" fill="#cd8500">4</text>
</g>
<!-- 1 -->
<g id="node14" class="node">
<title>1</title>
<ellipse fill="none" stroke="#000000" cx="138.495" cy="-470.997" rx="14" ry="14"/>
<text text-anchor="middle" x="138.495" y="-469.097" font-family="Times,serif" font-size="8.00" fill="#000000">1</text>
</g>
<!-- (11, 6) -->
<g id="node15" class="node">
<title>(11, 6)</title>
<ellipse fill="#fa8072" stroke="#ff0000" cx="4968.515" cy="-320.997" rx="21" ry="21"/>
<text text-anchor="middle" x="4968.515" y="-319.097" font-family="Times,serif" font-size="8.00" fill="#000000">11,6</text>
</g>
<!-- (11, 6)&#45;&gt;1 -->
<g id="edge13" class="edge">
<title>(11, 6)&#45;&gt;1</title>
<path fill="none" stroke="#0000ff" d="M4947.215,-321.657C4615.815,-331.957 517.665,-459.227 162.965,-470.237"/>
<polygon fill="#0000ff" stroke="#0000ff" points="162.832,-466.7393 152.945,-470.547 163.0485,-473.736 162.832,-466.7393"/>
<text text-anchor="middle" x="2553.115" y="-398.547" font-family="Times,serif" font-size="8.00" fill="#0000ff">2</text>
</g>
<!-- (4, 2) -->
<g id="node17" class="node">
<title>(4, 2)</title>
<ellipse fill="#9aff9a" stroke="#00ff00" cx="1188.515" cy="-470.997" rx="18.5" ry="18.5"/>
<text text-anchor="middle" x="1188.515" y="-469.097" font-family="Times,serif" font-size="8.00" fill="#000000">4,2</text>
</g>
<!-- (20, 3)&#45;&gt;(4, 2) -->
<g id="edge15" class="edge">
<title>(20, 3)&#45;&gt;(4, 2)</title>
<path fill="none" stroke="#0000ff" d="M2337.415,-264.777C2195.615,-290.247 1379.715,-436.677 1216.815,-465.917"/>
<polygon fill="#0000ff" stroke="#0000ff" points="1215.8397,-462.536 1206.615,-467.747 1217.0759,-469.426 1215.8397,-462.536"/>
<text text-anchor="middle" x="1775.115" y="-367.947" font-family="Times,serif" font-size="8.00" fill="#0000ff">2</text>
</g>
<!-- (11, 7) -->
<g id="node18" class="node">
<title>(11, 7)</title>
<ellipse fill="#fa8072" stroke="#ff0000" cx="5928.515" cy="-320.997" rx="21" ry="21"/>
<text text-anchor="middle" x="5928.515" y="-319.097" font-family="Times,serif" font-size="8.00" fill="#000000">11,7</text>
</g>
<!-- (4, 2)&#45;&gt;(11, 7) -->
<g id="edge16" class="edge">
<title>(4, 2)&#45;&gt;(11, 7)</title>
<path fill="none" stroke="#0000ff" d="M1207.115,-470.407C1513.215,-460.727 5499.515,-334.577 5896.715,-322.007"/>
<polygon fill="#0000ff" stroke="#0000ff" points="5897.0297,-325.4989 5906.915,-321.687 5896.8101,-318.5024 5897.0297,-325.4989"/>
<text text-anchor="middle" x="3549.915" y="-398.807" font-family="Times,serif" font-size="8.00" fill="#0000ff">2</text>
</g>
<!-- (7, 3) -->
<g id="node25" class="node">
<title>(7, 3)</title>
<ellipse fill="#9aff9a" stroke="#00ff00" cx="1638.515" cy="-500.997" rx="18.5" ry="18.5"/>
<text text-anchor="middle" x="1638.515" y="-499.097" font-family="Times,serif" font-size="8.00" fill="#000000">7,3</text>
</g>
<!-- (11, 7)&#45;&gt;(7, 3) -->
<g id="edge23" class="edge">
<title>(11, 7)&#45;&gt;(7, 3)</title>
<path fill="none" stroke="#0000ff" d="M5907.215,-321.897C5598.015,-334.867 2022.915,-484.867 1667.015,-499.807"/>
<polygon fill="#0000ff" stroke="#0000ff" points="1666.8593,-496.3104 1657.015,-500.227 1667.1531,-503.3042 1666.8593,-496.3104"/>
<text text-anchor="middle" x="3785.115" y="-413.447" font-family="Times,serif" font-size="8.00" fill="#0000ff">2</text>
</g>
<!-- (7, 1) -->
<g id="node19" class="node">
<title>(7, 1)</title>
<ellipse fill="#9aff9a" stroke="#00ff00" cx="18.5" cy="-500.997" rx="18.5" ry="18.5"/>
<text text-anchor="middle" x="18.5" y="-499.097" font-family="Times,serif" font-size="8.00" fill="#000000">7,1</text>
</g>
<!-- (7, 1)&#45;&gt;(11, 6) -->
<g id="edge17" class="edge">
<title>(7, 1)&#45;&gt;(11, 6)</title>
<path fill="none" stroke="#0000ff" d="M36.919,-500.327C349.185,-488.977 4532.315,-336.857 4937.115,-322.147"/>
<polygon fill="#0000ff" stroke="#0000ff" points="4937.3499,-325.6408 4947.215,-321.777 4937.0935,-318.6455 4937.3499,-325.6408"/>
<text text-anchor="middle" x="2485.015" y="-413.837" font-family="Times,serif" font-size="8.00" fill="#0000ff">2</text>
</g>
<!-- (11, 4) -->
<g id="node20" class="node">
<title>(11, 4)</title>
<ellipse fill="#fa8072" stroke="#ff0000" cx="3048.515" cy="-320.997" rx="21" ry="21"/>
<text text-anchor="middle" x="3048.515" y="-319.097" font-family="Times,serif" font-size="8.00" fill="#000000">11,4</text>
</g>
<!-- (4, 1) -->
<g id="node21" class="node">
<title>(4, 1)</title>
<ellipse fill="#9aff9a" stroke="#00ff00" cx="198.495" cy="-470.997" rx="18.5" ry="18.5"/>
<text text-anchor="middle" x="198.495" y="-469.097" font-family="Times,serif" font-size="8.00" fill="#000000">4,1</text>
</g>
<!-- (11, 4)&#45;&gt;(4, 1) -->
<g id="edge18" class="edge">
<title>(11, 4)&#45;&gt;(4, 1)</title>
<path fill="none" stroke="#cd8500" d="M3027.215,-322.117C2782.615,-334.997 509.655,-454.627 227.245,-469.487"/>
<polygon fill="#cd8500" stroke="#cd8500" points="226.8068,-466.0052 217.005,-470.027 227.1755,-472.9954 226.8068,-466.0052"/>
<text text-anchor="middle" x="1625.215" y="-398.407" font-family="Times,serif" font-size="8.00" fill="#cd8500">4</text>
</g>
<!-- (11, 5) -->
<g id="node22" class="node">
<title>(11, 5)</title>
<ellipse fill="#fa8072" stroke="#ff0000" cx="4008.515" cy="-320.997" rx="21" ry="21"/>
<text text-anchor="middle" x="4008.515" y="-319.097" font-family="Times,serif" font-size="8.00" fill="#000000">11,5</text>
</g>
<!-- (4, 1)&#45;&gt;(11, 5) -->
<g id="edge19" class="edge">
<title>(4, 1)&#45;&gt;(11, 5)</title>
<path fill="none" stroke="#cd8500" d="M217.205,-470.267C488.555,-459.577 3626.715,-336.027 3976.815,-322.247"/>
<polygon fill="#cd8500" stroke="#cd8500" points="3977.1599,-325.7363 3987.015,-321.847 3976.8855,-318.7416 3977.1599,-325.7363"/>
<text text-anchor="middle" x="2095.015" y="-398.857" font-family="Times,serif" font-size="8.00" fill="#cd8500">4</text>
</g>
<!-- (11, 5)&#45;&gt;1 -->
<g id="edge20" class="edge">
<title>(11, 5)&#45;&gt;1</title>
<path fill="none" stroke="#cd8500" d="M3987.215,-321.827C3694.515,-333.167 476.825,-457.887 163.075,-470.047"/>
<polygon fill="#cd8500" stroke="#cd8500" points="162.6415,-466.5611 152.785,-470.447 162.9134,-473.5558 162.6415,-466.5611"/>
<text text-anchor="middle" x="2073.115" y="-398.537" font-family="Times,serif" font-size="8.00" fill="#cd8500">4</text>
</g>
<!-- (3, 8) -->
<g id="node24" class="node">
<title>(3, 8)</title>
<ellipse fill="#9aff9a" stroke="#00ff00" cx="9288.515" cy="-200.997" rx="18.5" ry="18.5"/>
<text text-anchor="middle" x="9288.515" y="-199.097" font-family="Times,serif" font-size="8.00" fill="#000000">3,8</text>
</g>
<!-- (14, 2)&#45;&gt;(3, 8) -->
<g id="edge22" class="edge">
<title>(14, 2)&#45;&gt;(3, 8)</title>
<path fill="none" stroke="#00ff00" d="M1629.815,-21.501C2057.315,-31.52 8765.515,-188.737 9259.715,-200.327"/>
<polygon fill="#00ff00" stroke="#00ff00" points="9259.9361,-203.833 9270.015,-200.567 9260.0993,-196.8349 9259.9361,-203.833"/>
<text text-anchor="middle" x="5442.815" y="-113.517" font-family="Times,serif" font-size="8.00" fill="#00ff00">3</text>
</g>
<!-- (20, 6) -->
<g id="node35" class="node">
<title>(20, 6)</title>
<ellipse fill="#fa8072" stroke="#ff0000" cx="5508.515" cy="-260.997" rx="21" ry="21"/>
<text text-anchor="middle" x="5508.515" y="-259.097" font-family="Times,serif" font-size="8.00" fill="#000000">20,6</text>
</g>
<!-- (3, 8)&#45;&gt;(20, 6) -->
<g id="edge32" class="edge">
<title>(3, 8)&#45;&gt;(20, 6)</title>
<path fill="none" stroke="#00ff00" d="M9269.915,-201.297C9000.715,-205.567 5887.315,-254.987 5539.915,-260.497"/>
<polygon fill="#00ff00" stroke="#00ff00" points="5539.7583,-256.9989 5529.815,-260.657 5539.8692,-263.9981 5539.7583,-256.9989"/>
<text text-anchor="middle" x="7402.915" y="-233.497" font-family="Times,serif" font-size="8.00" fill="#00ff00">3</text>
</g>
<!-- (11, 2) -->
<g id="node26" class="node">
<title>(11, 2)</title>
<ellipse fill="#fa8072" stroke="#ff0000" cx="1128.515" cy="-320.997" rx="21" ry="21"/>
<text text-anchor="middle" x="1128.515" y="-319.097" font-family="Times,serif" font-size="8.00" fill="#000000">11,2</text>
</g>
<!-- (7, 3)&#45;&gt;(11, 2) -->
<g id="edge24" class="edge">
<title>(7, 3)&#45;&gt;(11, 2)</title>
<path fill="none" stroke="#0000ff" d="M1620.915,-494.807C1546.115,-468.377 1253.015,-364.947 1158.215,-331.497"/>
<polygon fill="#0000ff" stroke="#0000ff" points="1159.3097,-328.1717 1148.715,-328.127 1156.9694,-334.7689 1159.3097,-328.1717"/>
<text text-anchor="middle" x="1387.615" y="-415.747" font-family="Times,serif" font-size="8.00" fill="#0000ff">2</text>
</g>
<!-- (4, 5) -->
<g id="node38" class="node">
<title>(4, 5)</title>
<ellipse fill="#9aff9a" stroke="#00ff00" cx="4158.515" cy="-470.997" rx="18.5" ry="18.5"/>
<text text-anchor="middle" x="4158.515" y="-469.097" font-family="Times,serif" font-size="8.00" fill="#000000">4,5</text>
</g>
<!-- (11, 2)&#45;&gt;(4, 5) -->
<g id="edge35" class="edge">
<title>(11, 2)&#45;&gt;(4, 5)</title>
<path fill="none" stroke="#0000ff" d="M1149.915,-322.057C1403.715,-334.627 3836.615,-455.067 4129.615,-469.577"/>
<polygon fill="#0000ff" stroke="#0000ff" points="4129.757,-473.0879 4139.915,-470.077 4130.0965,-466.0962 4129.757,-473.0879"/>
<text text-anchor="middle" x="2637.815" y="-398.417" font-family="Times,serif" font-size="8.00" fill="#0000ff">2</text>
</g>
<!-- (4, 4) -->
<g id="node27" class="node">
<title>(4, 4)</title>
<ellipse fill="#9aff9a" stroke="#00ff00" cx="3168.515" cy="-470.997" rx="18.5" ry="18.5"/>
<text text-anchor="middle" x="3168.515" y="-469.097" font-family="Times,serif" font-size="8.00" fill="#000000">4,4</text>
</g>
<!-- (11, 1) -->
<g id="node28" class="node">
<title>(11, 1)</title>
<ellipse fill="#fa8072" stroke="#ff0000" cx="168.495" cy="-320.997" rx="21" ry="21"/>
<text text-anchor="middle" x="168.495" y="-319.097" font-family="Times,serif" font-size="8.00" fill="#000000">11,1</text>
</g>
<!-- (4, 4)&#45;&gt;(11, 1) -->
<g id="edge25" class="edge">
<title>(4, 4)&#45;&gt;(11, 1)</title>
<path fill="none" stroke="#cd8500" d="M3150.115,-470.077C2915.315,-458.337 504.465,-337.797 200.035,-322.577"/>
<polygon fill="#cd8500" stroke="#cd8500" points="199.8886,-319.0653 189.725,-322.057 199.536,-326.0564 199.8886,-319.0653"/>
<text text-anchor="middle" x="1673.115" y="-398.927" font-family="Times,serif" font-size="8.00" fill="#cd8500">4</text>
</g>
<!-- (7, 2) -->
<g id="node29" class="node">
<title>(7, 2)</title>
<ellipse fill="#9aff9a" stroke="#00ff00" cx="828.495" cy="-500.997" rx="18.5" ry="18.5"/>
<text text-anchor="middle" x="828.495" y="-499.097" font-family="Times,serif" font-size="8.00" fill="#000000">7,2</text>
</g>
<!-- (11, 1)&#45;&gt;(7, 2) -->
<g id="edge26" class="edge">
<title>(11, 1)&#45;&gt;(7, 2)</title>
<path fill="none" stroke="#cd8500" d="M188.975,-326.587C284.985,-352.767 690.525,-463.377 800.755,-493.437"/>
<polygon fill="#cd8500" stroke="#cd8500" points="799.9065,-496.8333 810.475,-496.087 801.7478,-490.0798 799.9065,-496.8333"/>
<text text-anchor="middle" x="492.865" y="-412.607" font-family="Times,serif" font-size="8.00" fill="#cd8500">4</text>
</g>
<!-- (7, 2)&#45;&gt;(11, 4) -->
<g id="edge27" class="edge">
<title>(7, 2)&#45;&gt;(11, 4)</title>
<path fill="none" stroke="#cd8500" d="M847.025,-499.497C1044.715,-483.467 2762.815,-344.167 3017.115,-323.547"/>
<polygon fill="#cd8500" stroke="#cd8500" points="3017.4303,-327.033 3027.115,-322.737 3016.865,-320.0559 3017.4303,-327.033"/>
<text text-anchor="middle" x="1930.015" y="-414.127" font-family="Times,serif" font-size="8.00" fill="#cd8500">4</text>
</g>
<!-- (20, 7) -->
<g id="node30" class="node">
<title>(20, 7)</title>
<ellipse fill="#fa8072" stroke="#ff0000" cx="6558.515" cy="-260.997" rx="21" ry="21"/>
<text text-anchor="middle" x="6558.515" y="-259.097" font-family="Times,serif" font-size="8.00" fill="#000000">20,7</text>
</g>
<!-- (20, 7)&#45;&gt;1 -->
<g id="edge28" class="edge">
<title>(20, 7)&#45;&gt;1</title>
<path fill="none" stroke="#00ff00" d="M6537.115,-261.697C6148.215,-274.427 575.585,-456.707 162.655,-470.207"/>
<polygon fill="#00ff00" stroke="#00ff00" points="162.544,-466.7087 152.665,-470.537 162.7751,-473.7048 162.544,-466.7087"/>
<text text-anchor="middle" x="3347.915" y="-368.557" font-family="Times,serif" font-size="8.00" fill="#00ff00">3</text>
</g>
<!-- (20, 9) -->
<g id="node31" class="node">
<title>(20, 9)</title>
<ellipse fill="#fa8072" stroke="#ff0000" cx="8658.515" cy="-260.997" rx="21" ry="21"/>
<text text-anchor="middle" x="8658.515" y="-259.097" font-family="Times,serif" font-size="8.00" fill="#000000">20,9</text>
</g>
<!-- (8, 5) -->
<g id="node32" class="node">
<title>(8, 5)</title>
<ellipse fill="#9aff9a" stroke="#00ff00" cx="3858.515" cy="-560.997" rx="18.5" ry="18.5"/>
<text text-anchor="middle" x="3858.515" y="-559.097" font-family="Times,serif" font-size="8.00" fill="#000000">8,5</text>
</g>
<!-- (20, 9)&#45;&gt;(8, 5) -->
<g id="edge29" class="edge">
<title>(20, 9)&#45;&gt;(8, 5)</title>
<path fill="none" stroke="#ff0000" d="M8637.115,-262.337C8307.315,-282.957 4270.215,-535.267 3887.515,-559.187"/>
<polygon fill="#ff0000" stroke="#ff0000" points="3887.0762,-555.7076 3877.315,-559.827 3887.5146,-562.6938 3887.0762,-555.7076"/>
<text text-anchor="middle" x="6260.315" y="-413.357" font-family="Times,serif" font-size="8.00" fill="#ff0000">1</text>
</g>
<!-- (20, 4) -->
<g id="node33" class="node">
<title>(20, 4)</title>
<ellipse fill="#fa8072" stroke="#ff0000" cx="3408.515" cy="-260.997" rx="21" ry="21"/>
<text text-anchor="middle" x="3408.515" y="-259.097" font-family="Times,serif" font-size="8.00" fill="#000000">20,4</text>
</g>
<!-- (8, 5)&#45;&gt;(20, 4) -->
<g id="edge30" class="edge">
<title>(8, 5)&#45;&gt;(20, 4)</title>
<path fill="none" stroke="#ff0000" d="M3843.015,-550.677C3776.915,-506.637 3518.415,-334.247 3434.715,-278.497"/>
<polygon fill="#ff0000" stroke="#ff0000" points="3436.5726,-275.5288 3426.315,-272.877 3432.6801,-281.3467 3436.5726,-275.5288"/>
<text text-anchor="middle" x="3636.915" y="-417.187" font-family="Times,serif" font-size="8.00" fill="#ff0000">1</text>
</g>
<!-- (4, 3) -->
<g id="node34" class="node">
<title>(4, 3)</title>
<ellipse fill="#9aff9a" stroke="#00ff00" cx="2178.515" cy="-470.997" rx="18.5" ry="18.5"/>
<text text-anchor="middle" x="2178.515" y="-469.097" font-family="Times,serif" font-size="8.00" fill="#000000">4,3</text>
</g>
<!-- (20, 4)&#45;&gt;(4, 3) -->
<g id="edge31" class="edge">
<title>(20, 4)&#45;&gt;(4, 3)</title>
<path fill="none" stroke="#ff0000" d="M3387.415,-264.597C3240.815,-289.627 2375.015,-437.457 2206.815,-466.167"/>
<polygon fill="#ff0000" stroke="#ff0000" points="2205.9855,-462.7578 2196.715,-467.887 2207.1607,-469.6584 2205.9855,-462.7578"/>
<text text-anchor="middle" x="2795.115" y="-367.987" font-family="Times,serif" font-size="8.00" fill="#ff0000">1</text>
</g>
<!-- (11, 8) -->
<g id="node43" class="node">
<title>(11, 8)</title>
<ellipse fill="#fa8072" stroke="#ff0000" cx="6888.515" cy="-320.997" rx="21" ry="21"/>
<text text-anchor="middle" x="6888.515" y="-319.097" font-family="Times,serif" font-size="8.00" fill="#000000">11,8</text>
</g>
<!-- (4, 3)&#45;&gt;(11, 8) -->
<g id="edge42" class="edge">
<title>(4, 3)&#45;&gt;(11, 8)</title>
<path fill="none" stroke="#ff0000" d="M2197.015,-470.407C2501.215,-460.727 6462.215,-334.577 6856.915,-322.007"/>
<polygon fill="#ff0000" stroke="#ff0000" points="6857.1309,-325.502 6867.015,-321.687 6856.9091,-318.5055 6857.1309,-325.502"/>
<text text-anchor="middle" x="4524.915" y="-398.807" font-family="Times,serif" font-size="8.00" fill="#ff0000">1</text>
</g>
<!-- (8, 2) -->
<g id="node36" class="node">
<title>(8, 2)</title>
<ellipse fill="#9aff9a" stroke="#00ff00" cx="1068.515" cy="-560.997" rx="18.5" ry="18.5"/>
<text text-anchor="middle" x="1068.515" y="-559.097" font-family="Times,serif" font-size="8.00" fill="#000000">8,2</text>
</g>
<!-- (20, 6)&#45;&gt;(8, 2) -->
<g id="edge33" class="edge">
<title>(20, 6)&#45;&gt;(8, 2)</title>
<path fill="none" stroke="#00ff00" d="M5487.215,-262.437C5172.215,-283.727 1461.315,-534.457 1097.215,-559.057"/>
<polygon fill="#00ff00" stroke="#00ff00" points="1096.9545,-555.5665 1087.215,-559.737 1097.4294,-562.5504 1096.9545,-555.5665"/>
<text text-anchor="middle" x="3290.215" y="-413.347" font-family="Times,serif" font-size="8.00" fill="#00ff00">3</text>
</g>
<!-- (20, 8) -->
<g id="node40" class="node">
<title>(20, 8)</title>
<ellipse fill="#fa8072" stroke="#ff0000" cx="7608.515" cy="-260.997" rx="21" ry="21"/>
<text text-anchor="middle" x="7608.515" y="-259.097" font-family="Times,serif" font-size="8.00" fill="#000000">20,8</text>
</g>
<!-- (8, 2)&#45;&gt;(20, 8) -->
<g id="edge44" class="edge">
<title>(8, 2)&#45;&gt;(20, 8)</title>
<path fill="none" stroke="#00ff00" d="M1087.015,-560.157C1451.815,-543.417 7103.215,-284.177 7576.915,-262.447"/>
<polygon fill="#00ff00" stroke="#00ff00" points="7577.2867,-265.9337 7587.115,-261.977 7576.9645,-258.9411 7577.2867,-265.9337"/>
<text text-anchor="middle" x="4329.915" y="-413.897" font-family="Times,serif" font-size="8.00" fill="#00ff00">3</text>
</g>
<!-- (8, 3) -->
<g id="node44" class="node">
<title>(8, 3)</title>
<ellipse fill="#9aff9a" stroke="#00ff00" cx="1998.515" cy="-560.997" rx="18.5" ry="18.5"/>
<text text-anchor="middle" x="1998.515" y="-559.097" font-family="Times,serif" font-size="8.00" fill="#000000">8,3</text>
</g>
<!-- (20, 1)&#45;&gt;(8, 3) -->
<g id="edge46" class="edge">
<title>(20, 1)&#45;&gt;(8, 3)</title>
<path fill="none" stroke="#ff0000" d="M279.565,-264.627C461.175,-295.947 1761.015,-520.057 1970.115,-556.107"/>
<polygon fill="#ff0000" stroke="#ff0000" points="1969.8655,-559.6156 1980.315,-557.867 1971.0558,-552.7175 1969.8655,-559.6156"/>
<text text-anchor="middle" x="1122.815" y="-412.967" font-family="Times,serif" font-size="8.00" fill="#ff0000">1</text>
</g>
<!-- (11, 3) -->
<g id="node39" class="node">
<title>(11, 3)</title>
<ellipse fill="#fa8072" stroke="#ff0000" cx="2088.515" cy="-320.997" rx="21" ry="21"/>
<text text-anchor="middle" x="2088.515" y="-319.097" font-family="Times,serif" font-size="8.00" fill="#000000">11,3</text>
</g>
<!-- (4, 5)&#45;&gt;(11, 3) -->
<g id="edge36" class="edge">
<title>(4, 5)&#45;&gt;(11, 3)</title>
<path fill="none" stroke="#0000ff" d="M4140.015,-469.657C3950.315,-455.917 2363.715,-340.947 2119.915,-323.277"/>
<polygon fill="#0000ff" stroke="#0000ff" points="2120.1406,-319.7843 2109.915,-322.557 2119.6378,-326.7662 2120.1406,-319.7843"/>
<text text-anchor="middle" x="3127.915" y="-399.067" font-family="Times,serif" font-size="8.00" fill="#0000ff">2</text>
</g>
<!-- (11, 3)&#45;&gt;(7, 1) -->
<g id="edge37" class="edge">
<title>(11, 3)&#45;&gt;(7, 1)</title>
<path fill="none" stroke="#0000ff" d="M2067.315,-322.837C1865.315,-340.407 279.875,-478.267 47.016,-498.517"/>
<polygon fill="#0000ff" stroke="#0000ff" points="46.6177,-495.0384 36.961,-499.397 47.2281,-502.0117 46.6177,-495.0384"/>
<text text-anchor="middle" x="1055.215" y="-413.277" font-family="Times,serif" font-size="8.00" fill="#0000ff">2</text>
</g>
<!-- (8, 4) -->
<g id="node41" class="node">
<title>(8, 4)</title>
<ellipse fill="#9aff9a" stroke="#00ff00" cx="2928.515" cy="-560.997" rx="18.5" ry="18.5"/>
<text text-anchor="middle" x="2928.515" y="-559.097" font-family="Times,serif" font-size="8.00" fill="#000000">8,4</text>
</g>
<!-- (20, 8)&#45;&gt;(8, 4) -->
<g id="edge38" class="edge">
<title>(20, 8)&#45;&gt;(8, 4)</title>
<path fill="none" stroke="#00ff00" d="M7587.115,-262.367C7262.015,-283.207 3333.515,-535.037 2957.415,-559.147"/>
<polygon fill="#00ff00" stroke="#00ff00" points="2957.0695,-555.6619 2947.315,-559.797 2957.5192,-562.6474 2957.0695,-555.6619"/>
<text text-anchor="middle" x="5270.215" y="-413.357" font-family="Times,serif" font-size="8.00" fill="#00ff00">3</text>
</g>
<!-- (8, 4)&#45;&gt;(20, 7) -->
<g id="edge39" class="edge">
<title>(8, 4)&#45;&gt;(20, 7)</title>
<path fill="none" stroke="#00ff00" d="M2947.215,-559.457C3211.015,-537.657 6187.915,-291.627 6527.115,-263.597"/>
<polygon fill="#00ff00" stroke="#00ff00" points="6527.5395,-267.0739 6537.215,-262.757 6526.9593,-260.098 6527.5395,-267.0739"/>
<text text-anchor="middle" x="4735.115" y="-414.127" font-family="Times,serif" font-size="8.00" fill="#00ff00">3</text>
</g>
<!-- (20, 2)&#45;&gt;(4, 4) -->
<g id="edge41" class="edge">
<title>(20, 2)&#45;&gt;(4, 4)</title>
<path fill="none" stroke="#cd8500" d="M1329.715,-263.397C1519.415,-284.807 2922.215,-443.197 3140.115,-467.797"/>
<polygon fill="#cd8500" stroke="#cd8500" points="3139.7852,-471.2819 3150.115,-468.927 3140.5713,-464.3262 3139.7852,-471.2819"/>
<text text-anchor="middle" x="2232.915" y="-368.197" font-family="Times,serif" font-size="8.00" fill="#cd8500">4</text>
</g>
<!-- (11, 8)&#45;&gt;1 -->
<g id="edge43" class="edge">
<title>(11, 8)&#45;&gt;1</title>
<path fill="none" stroke="#ff0000" d="M6867.015,-321.477C6466.015,-330.387 589.885,-460.967 162.965,-470.457"/>
<polygon fill="#ff0000" stroke="#ff0000" points="162.5744,-466.9647 152.655,-470.687 162.7306,-473.963 162.5744,-466.9647"/>
<text text-anchor="middle" x="3513.015" y="-398.567" font-family="Times,serif" font-size="8.00" fill="#ff0000">1</text>
</g>
<!-- (8, 3)&#45;&gt;(20, 9) -->
<g id="edge45" class="edge">
<title>(8, 3)&#45;&gt;(20, 9)</title>
<path fill="none" stroke="#ff0000" d="M2017.015,-560.167C2386.015,-543.547 8149.415,-283.927 8627.015,-262.417"/>
<polygon fill="#ff0000" stroke="#ff0000" points="8627.1825,-265.9131 8637.015,-261.967 8626.8677,-258.9202 8627.1825,-265.9131"/>
<text text-anchor="middle" x="5320.015" y="-413.887" font-family="Times,serif" font-size="8.00" fill="#ff0000">1</text>
</g>
</g>
</svg>
