<?xml version="1.0" encoding="UTF-8" standalone="no"?>
<!DOCTYPE svg PUBLIC "-//W3C//DTD SVG 1.1//EN"
 "http://www.w3.org/Graphics/SVG/1.1/DTD/svg11.dtd">
<!-- Generated by graphviz version 2.40.1 (20161225.0304)
 -->
<!-- Title: %3 Pages: 1 -->
<svg width="1262pt" height="576pt"
 viewBox="0.00 0.00 1262.03 576.00" xmlns="http://www.w3.org/2000/svg" xmlns:xlink="http://www.w3.org/1999/xlink">
<g id="graph0" class="graph" transform="scale(1 1) rotate(0) translate(4 571.998)">
<title>%3</title>
<polygon fill="#ffffff" stroke="transparent" points="-4,4 -4,-571.998 1258.03,-571.998 1258.03,4 -4,4"/>
<!-- 0 -->
<g id="node1" class="node">
<title>0</title>
<ellipse fill="none" stroke="#000000" cx="587" cy="-503.998" rx="14" ry="14"/>
<text text-anchor="middle" x="587" y="-502.098" font-family="Times,serif" font-size="8.00" fill="#000000">0</text>
</g>
<!-- (4, 1) -->
<g id="node2" class="node">
<title>(4, 1)</title>
<ellipse fill="#9aff9a" stroke="#00ff00" cx="87" cy="-543.998" rx="24" ry="24"/>
<text text-anchor="middle" x="87" y="-542.098" font-family="Times,serif" font-size="8.00" fill="#000000">4,1_4</text>
</g>
<!-- 0&#45;&gt;(4, 1) -->
<g id="edge1" class="edge">
<title>0&#45;&gt;(4, 1)</title>
<path fill="none" stroke="#cd8500" d="M572.84,-505.128C505.91,-510.488 220.36,-533.328 121.14,-541.268"/>
<polygon fill="#cd8500" stroke="#cd8500" points="120.7378,-537.7889 111.05,-542.078 121.298,-544.7665 120.7378,-537.7889"/>
<text text-anchor="middle" x="344.99" y="-525.798" font-family="Times,serif" font-size="8.00" fill="#cd8500">4</text>
</g>
<!-- (1, 1) -->
<g id="node3" class="node">
<title>(1, 1)</title>
<ellipse fill="#9aff9a" stroke="#00ff00" cx="407" cy="-503.998" rx="24" ry="24"/>
<text text-anchor="middle" x="407" y="-502.098" font-family="Times,serif" font-size="8.00" fill="#000000">1,1_1</text>
</g>
<!-- 0&#45;&gt;(1, 1) -->
<g id="edge2" class="edge">
<title>0&#45;&gt;(1, 1)</title>
<path fill="none" stroke="#ff0000" d="M572.57,-503.998C544.32,-503.998 480.98,-503.998 441.34,-503.998"/>
<polygon fill="#ff0000" stroke="#ff0000" points="441.33,-500.4981 431.33,-503.998 441.33,-507.4981 441.33,-500.4981"/>
<text text-anchor="middle" x="504.96" y="-506.598" font-family="Times,serif" font-size="8.00" fill="#ff0000">1</text>
</g>
<!-- (1, 2) -->
<g id="node4" class="node">
<title>(1, 2)</title>
<ellipse fill="#9aff9a" stroke="#00ff00" cx="987" cy="-503.998" rx="24" ry="24"/>
<text text-anchor="middle" x="987" y="-502.098" font-family="Times,serif" font-size="8.00" fill="#000000">1,2_3</text>
</g>
<!-- 0&#45;&gt;(1, 2) -->
<g id="edge3" class="edge">
<title>0&#45;&gt;(1, 2)</title>
<path fill="none" stroke="#00ff00" d="M601.24,-503.998C657.97,-503.998 868.89,-503.998 952.52,-503.998"/>
<polygon fill="#00ff00" stroke="#00ff00" points="952.76,-507.4981 962.76,-503.998 952.76,-500.4981 952.76,-507.4981"/>
<text text-anchor="middle" x="774.88" y="-506.598" font-family="Times,serif" font-size="8.00" fill="#00ff00">3</text>
</g>
<!-- (2, 1) -->
<g id="node5" class="node">
<title>(2, 1)</title>
<ellipse fill="#9aff9a" stroke="#00ff00" cx="767" cy="-24" rx="24" ry="24"/>
<text text-anchor="middle" x="767" y="-22.1" font-family="Times,serif" font-size="8.00" fill="#000000">2,1_2</text>
</g>
<!-- 0&#45;&gt;(2, 1) -->
<g id="edge4" class="edge">
<title>0&#45;&gt;(2, 1)</title>
<path fill="none" stroke="#0000ff" d="M592,-490.658C615.97,-426.748 719.37,-151.018 754.93,-56.185"/>
<polygon fill="#0000ff" stroke="#0000ff" points="758.306,-57.1503 758.54,-46.558 751.7516,-54.6924 758.306,-57.1503"/>
<text text-anchor="middle" x="671.47" y="-276.018" font-family="Times,serif" font-size="8.00" fill="#0000ff">2</text>
</g>
<!-- (10, 1) -->
<g id="node6" class="node">
<title>(10, 1)</title>
<ellipse fill="#fa8072" stroke="#ff0000" cx="27" cy="-283.998" rx="27" ry="27"/>
<text text-anchor="middle" x="27" y="-282.098" font-family="Times,serif" font-size="8.00" fill="#000000">10,1_4</text>
</g>
<!-- (4, 1)&#45;&gt;(10, 1) -->
<g id="edge5" class="edge">
<title>(4, 1)&#45;&gt;(10, 1)</title>
<path fill="none" stroke="#cd8500" d="M81.57,-520.468C71.055,-474.908 47.853,-374.368 35.359,-320.218"/>
<polygon fill="#cd8500" stroke="#cd8500" points="38.7424,-319.314 33.082,-310.358 31.9219,-320.8891 38.7424,-319.314"/>
<text text-anchor="middle" x="56.464" y="-422.948" font-family="Times,serif" font-size="8.00" fill="#cd8500">4</text>
</g>
<!-- (11, 2) -->
<g id="node7" class="node">
<title>(11, 2)</title>
<ellipse fill="#fa8072" stroke="#ff0000" cx="1227.03" cy="-323.998" rx="27" ry="27"/>
<text text-anchor="middle" x="1227.03" y="-322.098" font-family="Times,serif" font-size="8.00" fill="#000000">11,2_1</text>
</g>
<!-- (1, 1)&#45;&gt;(11, 2) -->
<g id="edge6" class="edge">
<title>(1, 1)&#45;&gt;(11, 2)</title>
<path fill="none" stroke="#ff0000" d="M430.66,-498.808C546.07,-473.468 1050.13,-362.828 1190.53,-331.998"/>
<polygon fill="#ff0000" stroke="#ff0000" points="1191.406,-335.3893 1200.43,-329.838 1189.9137,-328.5502 1191.406,-335.3893"/>
<text text-anchor="middle" x="808.61" y="-417.998" font-family="Times,serif" font-size="8.00" fill="#ff0000">1</text>
</g>
<!-- (10, 2) -->
<g id="node8" class="node">
<title>(10, 2)</title>
<ellipse fill="#fa8072" stroke="#ff0000" cx="227" cy="-283.998" rx="27" ry="27"/>
<text text-anchor="middle" x="227" y="-282.098" font-family="Times,serif" font-size="8.00" fill="#000000">10,2_3</text>
</g>
<!-- (1, 2)&#45;&gt;(10, 2) -->
<g id="edge7" class="edge">
<title>(1, 2)&#45;&gt;(10, 2)</title>
<path fill="none" stroke="#00ff00" d="M963.84,-497.298C855.1,-465.818 394.97,-332.628 262.7,-294.338"/>
<polygon fill="#00ff00" stroke="#00ff00" points="263.6191,-290.9604 253.04,-291.538 261.6703,-297.6837 263.6191,-290.9604"/>
<text text-anchor="middle" x="611.27" y="-398.418" font-family="Times,serif" font-size="8.00" fill="#00ff00">3</text>
</g>
<!-- (9, 1) -->
<g id="node9" class="node">
<title>(9, 1)</title>
<ellipse fill="#fa8072" stroke="#ff0000" cx="367" cy="-103.998" rx="24" ry="24"/>
<text text-anchor="middle" x="367" y="-102.098" font-family="Times,serif" font-size="8.00" fill="#000000">9,1_2</text>
</g>
<!-- (2, 1)&#45;&gt;(9, 1) -->
<g id="edge8" class="edge">
<title>(2, 1)&#45;&gt;(9, 1)</title>
<path fill="none" stroke="#0000ff" d="M743.18,-28.764C675.09,-42.382 479.5,-81.5 400.6,-97.28"/>
<polygon fill="#0000ff" stroke="#0000ff" points="399.8194,-93.8667 390.7,-99.26 401.1922,-100.7308 399.8194,-93.8667"/>
<text text-anchor="middle" x="569.89" y="-65.622" font-family="Times,serif" font-size="8.00" fill="#0000ff">2</text>
</g>
<!-- (10, 1)&#45;&gt;0 -->
<g id="edge9" class="edge">
<title>(10, 1)&#45;&gt;0</title>
<path fill="none" stroke="#cd8500" d="M52.15,-293.878C145.91,-330.718 474.32,-459.728 564.14,-495.018"/>
<polygon fill="#cd8500" stroke="#cd8500" points="563.0727,-498.359 573.66,-498.758 565.6323,-491.8438 563.0727,-498.359"/>
<text text-anchor="middle" x="306.15" y="-397.048" font-family="Times,serif" font-size="8.00" fill="#cd8500">4</text>
</g>
<!-- (6, 1) -->
<g id="node10" class="node">
<title>(6, 1)</title>
<ellipse fill="#9aff9a" stroke="#00ff00" cx="307" cy="-303.998" rx="24" ry="24"/>
<text text-anchor="middle" x="307" y="-302.098" font-family="Times,serif" font-size="8.00" fill="#000000">6,1_1</text>
</g>
<!-- (11, 2)&#45;&gt;(6, 1) -->
<g id="edge10" class="edge">
<title>(11, 2)&#45;&gt;(6, 1)</title>
<path fill="none" stroke="#ff0000" d="M1199.93,-323.408C1067.83,-320.538 489.93,-307.978 341.73,-304.758"/>
<polygon fill="#ff0000" stroke="#ff0000" points="341.5057,-301.2522 331.43,-304.528 341.3493,-308.2505 341.5057,-301.2522"/>
<text text-anchor="middle" x="768.85" y="-316.688" font-family="Times,serif" font-size="8.00" fill="#ff0000">1</text>
</g>
<!-- (6, 2) -->
<g id="node11" class="node">
<title>(6, 2)</title>
<ellipse fill="#9aff9a" stroke="#00ff00" cx="787" cy="-303.998" rx="24" ry="24"/>
<text text-anchor="middle" x="787" y="-302.098" font-family="Times,serif" font-size="8.00" fill="#000000">6,2_3</text>
</g>
<!-- (10, 2)&#45;&gt;(6, 2) -->
<g id="edge11" class="edge">
<title>(10, 2)&#45;&gt;(6, 2)</title>
<path fill="none" stroke="#00ff00" d="M254.01,-284.968C346.43,-288.268 649.98,-299.108 752.68,-302.778"/>
<polygon fill="#00ff00" stroke="#00ff00" points="752.692,-306.2805 762.81,-303.138 752.9406,-299.285 752.692,-306.2805"/>
<text text-anchor="middle" x="501.35" y="-287.468" font-family="Times,serif" font-size="8.00" fill="#00ff00">3</text>
</g>
<!-- (9, 1)&#45;&gt;0 -->
<g id="edge12" class="edge">
<title>(9, 1)&#45;&gt;0</title>
<path fill="none" stroke="#0000ff" d="M378.67,-125.218C416.69,-194.348 536.7,-412.548 575.08,-482.318"/>
<polygon fill="#0000ff" stroke="#0000ff" points="572.2434,-484.4232 580.13,-491.498 578.3766,-481.0492 572.2434,-484.4232"/>
<text text-anchor="middle" x="474.87" y="-306.368" font-family="Times,serif" font-size="8.00" fill="#0000ff">2</text>
</g>
<!-- (9, 2) -->
<g id="node13" class="node">
<title>(9, 2)</title>
<ellipse fill="#fa8072" stroke="#ff0000" cx="907" cy="-103.998" rx="24" ry="24"/>
<text text-anchor="middle" x="907" y="-102.098" font-family="Times,serif" font-size="8.00" fill="#000000">9,2_1</text>
</g>
<!-- (6, 1)&#45;&gt;(9, 2) -->
<g id="edge15" class="edge">
<title>(6, 1)&#45;&gt;(9, 2)</title>
<path fill="none" stroke="#ff0000" d="M330.15,-296.278C422.68,-265.438 766.11,-150.958 874.21,-114.928"/>
<polygon fill="#ff0000" stroke="#ff0000" points="875.536,-118.1756 883.92,-111.698 873.3264,-111.5334 875.536,-118.1756"/>
<text text-anchor="middle" x="600.18" y="-208.208" font-family="Times,serif" font-size="8.00" fill="#ff0000">1</text>
</g>
<!-- (11, 1) -->
<g id="node12" class="node">
<title>(11, 1)</title>
<ellipse fill="#fa8072" stroke="#ff0000" cx="527" cy="-323.998" rx="27" ry="27"/>
<text text-anchor="middle" x="527" y="-322.098" font-family="Times,serif" font-size="8.00" fill="#000000">11,1_3</text>
</g>
<!-- (6, 2)&#45;&gt;(11, 1) -->
<g id="edge13" class="edge">
<title>(6, 2)&#45;&gt;(11, 1)</title>
<path fill="none" stroke="#00ff00" d="M763.01,-305.848C717.51,-309.348 618.43,-316.968 564.24,-321.138"/>
<polygon fill="#00ff00" stroke="#00ff00" points="563.7343,-317.6663 554.03,-321.918 564.2676,-324.646 563.7343,-317.6663"/>
<text text-anchor="middle" x="661.62" y="-316.088" font-family="Times,serif" font-size="8.00" fill="#00ff00">3</text>
</g>
<!-- (11, 1)&#45;&gt;0 -->
<g id="edge14" class="edge">
<title>(11, 1)&#45;&gt;0</title>
<path fill="none" stroke="#00ff00" d="M535.6,-349.788C547.23,-384.698 567.84,-446.508 579.1,-480.308"/>
<polygon fill="#00ff00" stroke="#00ff00" points="575.9222,-481.8419 582.41,-490.218 582.5616,-479.6242 575.9222,-481.8419"/>
<text text-anchor="middle" x="555.35" y="-417.648" font-family="Times,serif" font-size="8.00" fill="#00ff00">3</text>
</g>
<!-- (9, 2)&#45;&gt;0 -->
<g id="edge16" class="edge">
<title>(9, 2)&#45;&gt;0</title>
<path fill="none" stroke="#ff0000" d="M891.78,-123.028C837.93,-190.338 656.75,-416.808 602.49,-484.638"/>
<polygon fill="#ff0000" stroke="#ff0000" points="599.4839,-482.7928 595.97,-492.788 604.95,-487.1657 599.4839,-482.7928"/>
<text text-anchor="middle" x="745.13" y="-306.428" font-family="Times,serif" font-size="8.00" fill="#ff0000">1</text>
</g>
</g>
</svg>
