<?xml version="1.0" encoding="UTF-8" standalone="no"?>
<!DOCTYPE svg PUBLIC "-//W3C//DTD SVG 1.1//EN"
 "http://www.w3.org/Graphics/SVG/1.1/DTD/svg11.dtd">
<!-- Generated by graphviz version 2.40.1 (20161225.0304)
 -->
<!-- Title: %3 Pages: 1 -->
<svg width="1019pt" height="576pt"
 viewBox="0.00 0.00 1019.00 576.00" xmlns="http://www.w3.org/2000/svg" xmlns:xlink="http://www.w3.org/1999/xlink">
<g id="graph0" class="graph" transform="scale(1 1) rotate(0) translate(4 571.998)">
<title>%3</title>
<polygon fill="#ffffff" stroke="transparent" points="-4,4 -4,-571.998 1015,-571.998 1015,4 -4,4"/>
<!-- 0 -->
<g id="node1" class="node">
<title>0</title>
<ellipse fill="none" stroke="#000000" cx="587" cy="-503.998" rx="14" ry="14"/>
<text text-anchor="middle" x="587" y="-502.098" font-family="Times,serif" font-size="8.00" fill="#000000">0</text>
</g>
<!-- (1, 2) -->
<g id="node2" class="node">
<title>(1, 2)</title>
<ellipse fill="#9aff9a" stroke="#00ff00" cx="987" cy="-503.998" rx="24" ry="24"/>
<text text-anchor="middle" x="987" y="-502.098" font-family="Times,serif" font-size="8.00" fill="#000000">1,2_2</text>
</g>
<!-- 0&#45;&gt;(1, 2) -->
<g id="edge1" class="edge">
<title>0&#45;&gt;(1, 2)</title>
<path fill="none" stroke="#0000ff" d="M601.24,-503.998C657.97,-503.998 868.89,-503.998 952.52,-503.998"/>
<polygon fill="#0000ff" stroke="#0000ff" points="952.76,-507.4981 962.76,-503.998 952.76,-500.4981 952.76,-507.4981"/>
<text text-anchor="middle" x="774.88" y="-506.598" font-family="Times,serif" font-size="8.00" fill="#0000ff">2</text>
</g>
<!-- (6, 2) -->
<g id="node3" class="node">
<title>(6, 2)</title>
<ellipse fill="#9aff9a" stroke="#00ff00" cx="787" cy="-303.998" rx="24" ry="24"/>
<text text-anchor="middle" x="787" y="-302.098" font-family="Times,serif" font-size="8.00" fill="#000000">6,2_1</text>
</g>
<!-- 0&#45;&gt;(6, 2) -->
<g id="edge2" class="edge">
<title>0&#45;&gt;(6, 2)</title>
<path fill="none" stroke="#ff0000" d="M597.19,-493.808C627.67,-463.328 718.7,-372.308 762.68,-328.318"/>
<polygon fill="#ff0000" stroke="#ff0000" points="765.2238,-330.724 769.82,-321.178 760.274,-325.7742 765.2238,-330.724"/>
<text text-anchor="middle" x="677.94" y="-413.668" font-family="Times,serif" font-size="8.00" fill="#ff0000">1</text>
</g>
<!-- (2, 1) -->
<g id="node4" class="node">
<title>(2, 1)</title>
<ellipse fill="#9aff9a" stroke="#00ff00" cx="767" cy="-24" rx="24" ry="24"/>
<text text-anchor="middle" x="767" y="-22.1" font-family="Times,serif" font-size="8.00" fill="#000000">2,1_3</text>
</g>
<!-- 0&#45;&gt;(2, 1) -->
<g id="edge3" class="edge">
<title>0&#45;&gt;(2, 1)</title>
<path fill="none" stroke="#00ff00" d="M592,-490.658C615.97,-426.748 719.37,-151.018 754.93,-56.185"/>
<polygon fill="#00ff00" stroke="#00ff00" points="758.306,-57.1503 758.54,-46.558 751.7516,-54.6924 758.306,-57.1503"/>
<text text-anchor="middle" x="671.47" y="-276.018" font-family="Times,serif" font-size="8.00" fill="#00ff00">3</text>
</g>
<!-- (6, 1) -->
<g id="node5" class="node">
<title>(6, 1)</title>
<ellipse fill="#9aff9a" stroke="#00ff00" cx="307" cy="-303.998" rx="24" ry="24"/>
<text text-anchor="middle" x="307" y="-302.098" font-family="Times,serif" font-size="8.00" fill="#000000">6,1_4</text>
</g>
<!-- 0&#45;&gt;(6, 1) -->
<g id="edge4" class="edge">
<title>0&#45;&gt;(6, 1)</title>
<path fill="none" stroke="#cd8500" d="M575.33,-495.658C534.19,-466.278 395.22,-367.018 335.1,-324.078"/>
<polygon fill="#cd8500" stroke="#cd8500" points="336.9986,-321.1328 326.83,-318.158 332.9241,-326.8248 336.9986,-321.1328"/>
<text text-anchor="middle" x="453.22" y="-412.468" font-family="Times,serif" font-size="8.00" fill="#cd8500">4</text>
</g>
<!-- (8, 2) -->
<g id="node6" class="node">
<title>(8, 2)</title>
<ellipse fill="#fa8072" stroke="#ff0000" cx="267" cy="-403.998" rx="24" ry="24"/>
<text text-anchor="middle" x="267" y="-402.098" font-family="Times,serif" font-size="8.00" fill="#000000">8,2_2</text>
</g>
<!-- (1, 2)&#45;&gt;(8, 2) -->
<g id="edge5" class="edge">
<title>(1, 2)&#45;&gt;(8, 2)</title>
<path fill="none" stroke="#0000ff" d="M963.04,-500.668C856.59,-485.888 426.16,-426.108 301.18,-408.748"/>
<polygon fill="#0000ff" stroke="#0000ff" points="301.4371,-405.2501 291.05,-407.338 300.472,-412.1833 301.4371,-405.2501"/>
<text text-anchor="middle" x="630.11" y="-457.308" font-family="Times,serif" font-size="8.00" fill="#0000ff">2</text>
</g>
<!-- (9, 2) -->
<g id="node7" class="node">
<title>(9, 2)</title>
<ellipse fill="#fa8072" stroke="#ff0000" cx="907" cy="-103.998" rx="24" ry="24"/>
<text text-anchor="middle" x="907" y="-102.098" font-family="Times,serif" font-size="8.00" fill="#000000">9,2_1</text>
</g>
<!-- (6, 2)&#45;&gt;(9, 2) -->
<g id="edge6" class="edge">
<title>(6, 2)&#45;&gt;(9, 2)</title>
<path fill="none" stroke="#ff0000" d="M799.39,-283.348C820.77,-247.718 864.65,-174.578 889.26,-133.558"/>
<polygon fill="#ff0000" stroke="#ff0000" points="892.3492,-135.2122 894.5,-124.838 886.3492,-131.6067 892.3492,-135.2122"/>
<text text-anchor="middle" x="842.33" y="-211.058" font-family="Times,serif" font-size="8.00" fill="#ff0000">1</text>
</g>
<!-- (9, 1) -->
<g id="node8" class="node">
<title>(9, 1)</title>
<ellipse fill="#fa8072" stroke="#ff0000" cx="367" cy="-103.998" rx="24" ry="24"/>
<text text-anchor="middle" x="367" y="-102.098" font-family="Times,serif" font-size="8.00" fill="#000000">9,1_3</text>
</g>
<!-- (2, 1)&#45;&gt;(9, 1) -->
<g id="edge7" class="edge">
<title>(2, 1)&#45;&gt;(9, 1)</title>
<path fill="none" stroke="#00ff00" d="M743.18,-28.764C675.09,-42.382 479.5,-81.5 400.6,-97.28"/>
<polygon fill="#00ff00" stroke="#00ff00" points="399.8194,-93.8667 390.7,-99.26 401.1922,-100.7308 399.8194,-93.8667"/>
<text text-anchor="middle" x="569.89" y="-65.622" font-family="Times,serif" font-size="8.00" fill="#00ff00">3</text>
</g>
<!-- (10, 1) -->
<g id="node9" class="node">
<title>(10, 1)</title>
<ellipse fill="#fa8072" stroke="#ff0000" cx="27" cy="-283.998" rx="27" ry="27"/>
<text text-anchor="middle" x="27" y="-282.098" font-family="Times,serif" font-size="8.00" fill="#000000">10,1_4</text>
</g>
<!-- (6, 1)&#45;&gt;(10, 1) -->
<g id="edge8" class="edge">
<title>(6, 1)&#45;&gt;(10, 1)</title>
<path fill="none" stroke="#cd8500" d="M282.64,-302.258C233.54,-298.748 122.41,-290.818 64.182,-286.658"/>
<polygon fill="#cd8500" stroke="#cd8500" points="64.1748,-283.1487 53.951,-285.928 63.6765,-290.1309 64.1748,-283.1487"/>
<text text-anchor="middle" x="171.41" y="-297.058" font-family="Times,serif" font-size="8.00" fill="#cd8500">4</text>
</g>
<!-- (4, 1) -->
<g id="node10" class="node">
<title>(4, 1)</title>
<ellipse fill="#9aff9a" stroke="#00ff00" cx="87" cy="-543.998" rx="24" ry="24"/>
<text text-anchor="middle" x="87" y="-542.098" font-family="Times,serif" font-size="8.00" fill="#000000">4,1_2</text>
</g>
<!-- (8, 2)&#45;&gt;(4, 1) -->
<g id="edge9" class="edge">
<title>(8, 2)&#45;&gt;(4, 1)</title>
<path fill="none" stroke="#0000ff" d="M247.74,-418.978C215.66,-443.928 151.21,-494.058 114.41,-522.678"/>
<polygon fill="#0000ff" stroke="#0000ff" points="111.8633,-520.2249 106.12,-529.128 116.1618,-525.7496 111.8633,-520.2249"/>
<text text-anchor="middle" x="179.07" y="-473.428" font-family="Times,serif" font-size="8.00" fill="#0000ff">2</text>
</g>
<!-- (1, 1) -->
<g id="node11" class="node">
<title>(1, 1)</title>
<ellipse fill="#9aff9a" stroke="#00ff00" cx="407" cy="-503.998" rx="24" ry="24"/>
<text text-anchor="middle" x="407" y="-502.098" font-family="Times,serif" font-size="8.00" fill="#000000">1,1_1</text>
</g>
<!-- (9, 2)&#45;&gt;(1, 1) -->
<g id="edge10" class="edge">
<title>(9, 2)&#45;&gt;(1, 1)</title>
<path fill="none" stroke="#ff0000" d="M888.01,-119.188C811.28,-180.568 524,-410.398 434.08,-482.338"/>
<polygon fill="#ff0000" stroke="#ff0000" points="431.6363,-479.8105 426.01,-488.788 436.0067,-485.2786 431.6363,-479.8105"/>
<text text-anchor="middle" x="659.05" y="-303.368" font-family="Times,serif" font-size="8.00" fill="#ff0000">1</text>
</g>
<!-- (9, 1)&#45;&gt;0 -->
<g id="edge11" class="edge">
<title>(9, 1)&#45;&gt;0</title>
<path fill="none" stroke="#00ff00" d="M378.67,-125.218C416.69,-194.348 536.7,-412.548 575.08,-482.318"/>
<polygon fill="#00ff00" stroke="#00ff00" points="572.2434,-484.4232 580.13,-491.498 578.3766,-481.0492 572.2434,-484.4232"/>
<text text-anchor="middle" x="474.87" y="-306.368" font-family="Times,serif" font-size="8.00" fill="#00ff00">3</text>
</g>
<!-- (10, 1)&#45;&gt;0 -->
<g id="edge12" class="edge">
<title>(10, 1)&#45;&gt;0</title>
<path fill="none" stroke="#cd8500" d="M52.15,-293.878C145.91,-330.718 474.32,-459.728 564.14,-495.018"/>
<polygon fill="#cd8500" stroke="#cd8500" points="563.0727,-498.359 573.66,-498.758 565.6323,-491.8438 563.0727,-498.359"/>
<text text-anchor="middle" x="306.15" y="-397.048" font-family="Times,serif" font-size="8.00" fill="#cd8500">4</text>
</g>
<!-- (8, 1) -->
<g id="node12" class="node">
<title>(8, 1)</title>
<ellipse fill="#fa8072" stroke="#ff0000" cx="47" cy="-403.998" rx="24" ry="24"/>
<text text-anchor="middle" x="47" y="-402.098" font-family="Times,serif" font-size="8.00" fill="#000000">8,1_2</text>
</g>
<!-- (4, 1)&#45;&gt;(8, 1) -->
<g id="edge13" class="edge">
<title>(4, 1)&#45;&gt;(8, 1)</title>
<path fill="none" stroke="#0000ff" d="M80.395,-520.878C73.852,-497.978 63.77,-462.688 56.394,-436.878"/>
<polygon fill="#0000ff" stroke="#0000ff" points="59.7268,-435.8023 53.615,-427.148 52.9959,-437.7247 59.7268,-435.8023"/>
<text text-anchor="middle" x="66.395" y="-481.478" font-family="Times,serif" font-size="8.00" fill="#0000ff">2</text>
</g>
<!-- (11, 1) -->
<g id="node13" class="node">
<title>(11, 1)</title>
<ellipse fill="#fa8072" stroke="#ff0000" cx="527" cy="-323.998" rx="27" ry="27"/>
<text text-anchor="middle" x="527" y="-322.098" font-family="Times,serif" font-size="8.00" fill="#000000">11,1_1</text>
</g>
<!-- (1, 1)&#45;&gt;(11, 1) -->
<g id="edge14" class="edge">
<title>(1, 1)&#45;&gt;(11, 1)</title>
<path fill="none" stroke="#ff0000" d="M420.53,-483.698C441.47,-452.288 481.87,-391.698 506.43,-354.848"/>
<polygon fill="#ff0000" stroke="#ff0000" points="509.3767,-356.7378 512.02,-346.478 503.5555,-352.8501 509.3767,-356.7378"/>
<text text-anchor="middle" x="461.48" y="-421.878" font-family="Times,serif" font-size="8.00" fill="#ff0000">1</text>
</g>
<!-- (8, 1)&#45;&gt;0 -->
<g id="edge16" class="edge">
<title>(8, 1)&#45;&gt;0</title>
<path fill="none" stroke="#0000ff" d="M70.9,-408.428C160.05,-424.938 472.69,-482.828 562.63,-499.488"/>
<polygon fill="#0000ff" stroke="#0000ff" points="562.2203,-502.9715 572.69,-501.348 563.493,-496.0882 562.2203,-502.9715"/>
<text text-anchor="middle" x="314.76" y="-456.558" font-family="Times,serif" font-size="8.00" fill="#0000ff">2</text>
</g>
<!-- (11, 1)&#45;&gt;0 -->
<g id="edge15" class="edge">
<title>(11, 1)&#45;&gt;0</title>
<path fill="none" stroke="#ff0000" d="M535.6,-349.788C547.23,-384.698 567.84,-446.508 579.1,-480.308"/>
<polygon fill="#ff0000" stroke="#ff0000" points="575.9222,-481.8419 582.41,-490.218 582.5616,-479.6242 575.9222,-481.8419"/>
<text text-anchor="middle" x="555.35" y="-417.648" font-family="Times,serif" font-size="8.00" fill="#ff0000">1</text>
</g>
</g>
</svg>
